<svg version="1.1" id="Layer_1" xmlns="http://www.w3.org/2000/svg"
	xmlns:xlink="http://www.w3.org/1999/xlink" x="0px" y="0px"
	width="100%" viewBox="0 0 500 368" enable-background="new 0 0 500 368" xml:space="preserve">
<path fill="transparent" opacity="1.000000" stroke="none" 
	d="
M0.999999,157.000000 
	C1.000000,105.035294 1.000000,53.070591 1.000000,1.000000 
	C162.022003,1.000000 323.044006,1.000000 484.812103,1.253485 
	C485.357147,1.963159 485.156097,2.419349 484.540802,2.926054 
	C480.750244,3.703351 477.373993,4.430132 473.589539,5.086707 
	C469.104858,5.966447 465.028412,6.916395 460.532318,7.921731 
	C456.406586,8.707150 452.700470,9.437181 448.590942,10.097143 
	C445.562866,10.663311 442.795715,10.986315 440.381500,12.084942 
	C439.369720,12.545378 438.251434,15.457511 438.643982,15.872881 
	C440.834381,18.190426 443.472839,20.084522 446.022339,22.351398 
	C446.269775,22.871506 446.533569,23.025873 447.014771,23.344330 
	C448.728790,25.417562 450.306030,27.188984 451.600006,29.068306 
	C450.530762,30.078785 449.744751,30.981363 448.652863,32.023792 
	C445.884033,34.742527 443.421143,37.321415 440.650604,40.021652 
	C439.856476,41.081791 439.369965,42.020573 438.615692,43.052681 
	C437.885101,43.725502 437.422272,44.304989 436.652649,45.025497 
	C433.523865,48.430439 430.701965,51.694363 427.613220,55.052681 
	C426.883423,55.725086 426.420471,56.303097 425.672424,57.003326 
	C424.578186,58.043968 423.769073,58.962387 422.661865,60.002739 
	C420.617767,59.067589 418.871735,58.010509 417.068054,56.599808 
	C414.719299,51.735893 410.459351,50.288612 405.575592,49.093872 
	C401.271912,48.349621 398.298706,49.854095 395.617401,52.937584 
	C393.812134,54.644833 392.353455,56.295341 390.582794,58.099907 
	C389.496277,60.131062 388.721710,62.008160 387.617126,64.046875 
	C384.840607,69.766754 382.394073,75.325012 379.618378,81.044357 
	C376.509430,87.429672 373.729706,93.653877 370.619141,100.035751 
	C368.510284,104.425903 366.732208,108.658394 364.673706,113.002579 
	C363.656464,113.410530 362.919678,113.706802 362.100281,113.649734 
	C360.051056,110.848862 358.084381,108.401329 356.062683,105.627869 
	C355.062775,104.202652 354.117920,103.103355 353.086853,101.652168 
	C351.058502,98.868034 349.116425,96.435791 347.020935,93.680099 
	C344.597382,92.197350 342.327271,91.038033 339.854950,89.519440 
	C337.435028,89.153236 335.217316,89.146309 332.644165,89.153152 
	C329.179688,92.256691 324.781921,94.793800 323.179657,98.529800 
	C315.332428,116.827553 308.229645,135.444565 300.525879,154.115173 
	C295.264465,166.927399 290.340881,179.573212 285.412415,192.231598 
	C280.605347,186.481476 276.223724,181.240265 271.913940,175.642944 
	C267.935577,169.853638 263.885376,164.420441 259.885010,158.720581 
	C259.629303,158.356400 259.323700,158.258881 258.718445,158.042496 
	C257.320251,156.934311 256.221771,155.944992 255.062531,154.566071 
	C252.340408,153.118546 249.691132,151.180252 247.015778,151.143585 
	C227.702545,150.878830 208.383926,150.972946 189.067322,151.041443 
	C187.340118,151.047562 185.428009,151.312683 183.922134,152.083435 
	C178.058029,155.084869 173.735245,162.731491 175.076584,167.982086 
	C177.178345,176.209183 181.949982,180.365479 190.667847,180.781906 
	C206.112122,181.519592 221.621353,180.897003 237.422668,180.920898 
	C238.463486,181.217102 239.498123,181.202438 239.861115,181.688919 
	C251.022232,196.646500 261.951447,211.780853 273.322205,226.576096 
	C276.823303,231.131577 279.530945,237.372849 287.147217,237.460083 
	C288.916107,237.697189 290.580505,237.853210 292.076599,237.423370 
	C302.270477,234.494675 304.441681,225.567871 307.448212,216.883865 
	C311.409882,207.754730 315.125366,198.816833 318.635986,189.799179 
	C321.562225,182.282593 324.248108,174.672424 327.305664,167.018555 
	C327.398499,166.595016 327.226135,166.256638 327.036743,165.958160 
	C327.019745,165.998032 327.089294,165.946259 327.053467,165.568909 
	C329.381348,160.139893 331.745117,155.088226 334.448090,149.873993 
	C336.134949,145.475922 337.482574,141.240417 338.953979,136.711151 
	C340.011688,135.962280 340.945557,135.507187 341.934540,135.407623 
	C345.312531,140.214890 348.635406,144.666626 352.054382,149.393250 
	C352.744843,150.146896 353.339264,150.625641 353.955383,151.062103 
	C353.977112,151.019821 353.892914,151.063995 353.945282,151.410172 
	C355.959534,153.517746 357.921448,155.279144 359.971588,157.297821 
	C360.372437,157.646484 360.685028,157.737854 361.325897,157.900620 
	C362.096619,157.923126 362.539032,157.874222 363.261292,157.939240 
	C364.028442,158.320526 364.515808,158.587891 365.399750,158.924316 
	C368.548889,158.036880 371.301453,157.080399 374.400909,156.067200 
	C376.205200,154.352127 377.662598,152.693787 379.440979,150.880096 
	C381.522369,146.521301 383.282745,142.317871 385.371887,137.945068 
	C386.767212,135.292343 387.833740,132.809006 389.183228,130.158997 
	C391.347321,125.672844 393.228424,121.353363 395.427307,116.876465 
	C397.198151,113.492577 398.651276,110.266090 400.422058,106.881905 
	C401.770813,104.138954 402.801880,101.553711 403.999146,98.646049 
	C406.476440,96.613510 405.204315,91.555092 410.092407,92.435074 
	C414.146851,96.255760 418.231689,99.318474 424.357788,97.911896 
	C431.831757,94.808380 436.980255,89.475349 441.431152,82.911972 
	C444.534058,79.869102 447.333893,76.957512 450.393127,73.950729 
	C451.371338,72.708450 452.090149,71.561363 453.076843,70.247498 
	C456.269531,67.072136 459.194366,64.063553 462.429413,60.914581 
	C466.179993,56.892242 469.620300,53.010300 473.416779,49.079872 
	C477.386932,52.054382 480.954315,55.135746 484.634521,58.075878 
	C486.486572,59.555462 488.054382,62.405048 491.474243,59.836601 
	C492.237305,55.053883 492.590515,50.486523 493.080933,45.933945 
	C494.356323,34.095375 495.762115,22.270369 496.956085,10.423846 
	C497.269653,7.312690 497.001190,4.142876 497.000000,1.000000 
	C498.332794,1.000000 499.665558,1.000000 500.998779,1.000000 
	C500.999176,123.615288 500.999176,246.230576 500.999176,368.922913 
	C334.453796,368.922913 167.907578,368.922913 1.000000,368.922913 
	C1.000000,310.645142 1.000000,252.289551 1.337753,193.169983 
	C2.039835,192.743240 2.643353,193.026154 2.734065,193.425537 
	C6.596416,210.431335 15.428596,224.237778 28.827139,235.405350 
	C50.355625,253.349136 75.219177,256.846222 101.797691,252.505737 
	C110.327599,251.112732 118.632721,248.343338 126.999199,246.214203 
	C126.999199,272.287354 126.975883,298.780731 127.013695,325.274048 
	C127.024773,333.036011 134.498260,340.146545 142.851501,339.924500 
	C149.834427,339.738861 158.340027,334.888855 158.062622,325.555084 
	C157.782471,316.128113 158.000885,306.686310 158.000885,297.000122 
	C179.501846,297.000122 200.474243,297.258759 221.435303,296.884155 
	C231.011505,296.713013 239.801819,293.160400 246.882187,286.546631 
	C260.920929,273.433105 263.862335,256.937866 261.050018,238.680511 
	C257.086395,212.948654 238.394440,200.416016 214.538971,200.071793 
	C191.215714,199.735260 167.882141,199.861938 144.557510,200.146683 
	C141.080811,200.189117 137.337585,201.700607 134.241821,203.456573 
	C130.756363,205.433517 127.985771,208.625381 124.693832,210.996704 
	C109.200874,222.156982 91.906723,224.790588 73.323006,222.051544 
	C49.699879,218.569778 28.889030,197.223343 31.777557,169.551315 
	C34.172932,146.603653 50.514557,129.368805 72.762634,126.268990 
	C91.217171,123.697716 108.610252,128.392838 123.645096,140.114029 
	C129.613602,144.767075 137.343750,144.807968 143.197067,140.293274 
	C148.598633,136.127045 151.090683,128.486343 147.527420,122.434502 
	C145.092987,118.299843 140.939499,114.775154 136.824692,112.100700 
	C117.534546,99.562866 96.638374,92.917870 73.226181,94.894142 
	C54.715034,96.456703 38.922157,103.665215 25.532959,116.116570 
	C14.004874,126.837173 6.697408,140.219147 2.926194,155.529663 
	C2.775652,156.140854 1.663895,156.515259 0.999999,157.000000 
z"/>
<path fill="#7673e6" opacity="1.000000" stroke="none" 
	d="
M0.999999,157.468658 
	C1.663895,156.515259 2.775652,156.140854 2.926194,155.529663 
	C6.697408,140.219147 14.004874,126.837173 25.532959,116.116570 
	C38.922157,103.665215 54.715034,96.456703 73.226181,94.894142 
	C96.638374,92.917870 117.534546,99.562866 136.824692,112.100700 
	C140.939499,114.775154 145.092987,118.299843 147.527420,122.434502 
	C151.090683,128.486343 148.598633,136.127045 143.197067,140.293274 
	C137.343750,144.807968 129.613602,144.767075 123.645096,140.114029 
	C108.610252,128.392838 91.217171,123.697716 72.762634,126.268990 
	C50.514557,129.368805 34.172932,146.603653 31.777557,169.551315 
	C28.889030,197.223343 49.699879,218.569778 73.323006,222.051544 
	C91.906723,224.790588 109.200874,222.156982 124.693832,210.996704 
	C127.985771,208.625381 130.756363,205.433517 134.241821,203.456573 
	C137.337585,201.700607 141.080811,200.189117 144.557510,200.146683 
	C167.882141,199.861938 191.215714,199.735260 214.538971,200.071793 
	C238.394440,200.416016 257.086395,212.948654 261.050018,238.680511 
	C263.862335,256.937866 260.920929,273.433105 246.882187,286.546631 
	C239.801819,293.160400 231.011505,296.713013 221.435303,296.884155 
	C200.474243,297.258759 179.501846,297.000122 158.000885,297.000122 
	C158.000885,306.686310 157.782471,316.128113 158.062622,325.555084 
	C158.340027,334.888855 149.834427,339.738861 142.851501,339.924500 
	C134.498260,340.146545 127.024773,333.036011 127.013695,325.274048 
	C126.975883,298.780731 126.999199,272.287354 126.999199,246.214203 
	C118.632721,248.343338 110.327599,251.112732 101.797691,252.505737 
	C75.219177,256.846222 50.355625,253.349136 28.827139,235.405350 
	C15.428596,224.237778 6.596416,210.431335 2.734065,193.425537 
	C2.643353,193.026154 2.039835,192.743240 1.337753,192.703003 
	C1.000000,181.312439 1.000000,169.624878 0.999999,157.468658 
M158.001099,234.652435 
	C158.001099,245.052628 158.001099,255.452820 158.001099,265.998840 
	C178.742371,265.998840 198.848587,266.014587 218.954620,265.960510 
	C220.185593,265.957184 221.443451,265.486755 222.640717,265.088959 
	C231.631577,262.101837 232.409775,252.062225 230.237335,241.918320 
	C228.521378,233.905853 223.984573,231.231430 213.198288,231.071243 
	C195.742645,230.812012 178.279984,230.959595 160.821899,231.115677 
	C159.874161,231.124130 158.941223,232.788208 158.001099,234.652435 
z"/>
<path fill="#FB4081" opacity="1.000000" stroke="none" 
	d="
M496.539368,1.000000 
	C497.001190,4.142876 497.269653,7.312690 496.956085,10.423846 
	C495.762115,22.270369 494.356323,34.095375 493.080933,45.933945 
	C492.590515,50.486523 492.237305,55.053883 491.152771,59.699081 
	C485.415436,57.120872 482.574677,53.559536 482.854675,47.195797 
	C483.365814,35.578106 482.864471,23.919210 483.089569,12.283383 
	C483.150452,9.136581 484.303375,6.010906 484.955078,2.875536 
	C485.156097,2.419349 485.357147,1.963159 485.279083,1.253485 
	C488.692902,1.000000 492.385834,1.000000 496.539368,1.000000 
z"/>
<path fill="#7673e6" opacity="1.000000" stroke="none" 
	d="
M300.863770,153.948746 
	C308.229645,135.444565 315.332428,116.827553 323.179657,98.529800 
	C324.781921,94.793800 329.179688,92.256691 332.639343,89.500160 
	C331.658142,91.221718 330.326416,92.610039 328.682159,94.153122 
	C326.914429,97.143089 324.253510,99.955139 324.198486,102.817253 
	C323.825531,122.226830 323.928589,141.647781 324.135864,161.062286 
	C324.153351,162.700607 326.060211,164.318741 327.089294,165.946259 
	C327.089294,165.946259 327.019745,165.998032 327.016724,166.254608 
	C327.022614,166.708679 327.031525,166.906189 327.040466,167.103714 
	C324.248108,174.672424 321.562225,182.282593 318.635986,189.799179 
	C315.125366,198.816833 311.409882,207.754730 307.088745,216.922119 
	C305.546387,218.442017 304.649628,219.738571 303.859344,221.097076 
	C301.280182,225.530762 298.739868,229.987030 296.184631,234.434616 
	C295.484772,234.316650 294.784912,234.198685 294.085083,234.080719 
	C293.061798,231.987106 291.233276,229.929062 291.139008,227.794418 
	C290.120819,204.742661 291.003387,181.917053 300.275391,160.215530 
	C301.060394,158.378204 300.694824,156.049286 300.863770,153.948746 
z"/>
<path fill="#7673e6" opacity="1.000000" stroke="none" 
	d="
M259.835175,158.987228 
	C263.885376,164.420441 267.935577,169.853638 271.576355,175.600586 
	C269.719269,174.392715 268.398651,172.714462 266.781311,171.401886 
	C265.611755,170.452744 264.048096,169.989197 262.660217,169.309097 
	C262.107605,170.586975 261.102142,171.855927 261.076721,173.144196 
	C260.926361,180.775421 260.062683,188.564926 261.278229,196.000504 
	C262.410461,202.926468 263.003479,210.396255 268.071350,216.281845 
	C272.374268,221.279022 276.118164,226.756516 280.401276,231.772278 
	C282.202209,233.881256 284.754272,235.348785 286.964874,237.107910 
	C279.530945,237.372849 276.823303,231.131577 273.322205,226.576096 
	C261.951447,211.780853 251.022232,196.646500 239.861115,181.688919 
	C239.498123,181.202438 238.463486,181.217102 237.367920,180.466537 
	C233.832397,179.289322 230.696625,178.329636 227.503647,178.068146 
	C222.037003,177.620422 220.043930,175.830826 220.004852,170.456375 
	C219.979477,166.966324 220.166931,163.465927 219.958557,159.988190 
	C219.690125,155.507950 222.222488,153.059860 226.069962,153.153702 
	C235.763611,153.390182 245.641205,151.288666 255.123306,154.955673 
	C256.221771,155.944992 257.320251,156.934311 258.809570,158.220322 
	C259.364319,158.738098 259.575897,158.894836 259.835175,158.987228 
z"/>
<path fill="#7673e6" opacity="1.000000" stroke="none" 
	d="
M287.147217,237.460083 
	C284.754272,235.348785 282.202209,233.881256 280.401276,231.772278 
	C276.118164,226.756516 272.374268,221.279022 268.071350,216.281845 
	C263.003479,210.396255 262.410461,202.926468 261.278229,196.000504 
	C260.062683,188.564926 260.926361,180.775421 261.076721,173.144196 
	C261.102142,171.855927 262.107605,170.586975 262.660217,169.309097 
	C264.048096,169.989197 265.611755,170.452744 266.781311,171.401886 
	C268.398651,172.714462 269.719269,174.392715 271.504517,175.956711 
	C276.223724,181.240265 280.605347,186.481476 285.412415,192.231598 
	C290.340881,179.573212 295.264465,166.927399 300.525879,154.115173 
	C300.694824,156.049286 301.060394,158.378204 300.275391,160.215530 
	C291.003387,181.917053 290.120819,204.742661 291.139008,227.794418 
	C291.233276,229.929062 293.061798,231.987106 294.085083,234.080719 
	C294.784912,234.198685 295.484772,234.316650 296.184631,234.434616 
	C298.739868,229.987030 301.280182,225.530762 303.859344,221.097076 
	C304.649628,219.738571 305.546387,218.442017 306.753845,217.078827 
	C304.441681,225.567871 302.270477,234.494675 292.076599,237.423370 
	C290.580505,237.853210 288.916107,237.697189 287.147217,237.460083 
z"/>
<path fill="#7673e6" opacity="1.000000" stroke="none" 
	d="
M255.062531,154.566071 
	C245.641205,151.288666 235.763611,153.390182 226.069962,153.153702 
	C222.222488,153.059860 219.690125,155.507950 219.958557,159.988190 
	C220.166931,163.465927 219.979477,166.966324 220.004852,170.456375 
	C220.043930,175.830826 222.037003,177.620422 227.503647,178.068146 
	C230.696625,178.329636 233.832397,179.289322 237.048660,180.389282 
	C221.621353,180.897003 206.112122,181.519592 190.667847,180.781906 
	C181.949982,180.365479 177.178345,176.209183 175.076584,167.982086 
	C173.735245,162.731491 178.058029,155.084869 183.922134,152.083435 
	C185.428009,151.312683 187.340118,151.047562 189.067322,151.041443 
	C208.383926,150.972946 227.702545,150.878830 247.015778,151.143585 
	C249.691132,151.180252 252.340408,153.118546 255.062531,154.566071 
z"/>
<path fill="#F74E86" opacity="1.000000" stroke="none" 
	d="
M473.060638,49.128357 
	C469.620300,53.010300 466.179993,56.892242 462.067322,60.757301 
	C458.776367,60.082825 457.881042,58.566101 457.922729,55.738277 
	C458.103485,43.480988 457.979004,31.219446 458.012177,18.959579 
	C458.022827,15.023318 457.170990,10.819794 460.951935,7.866341 
	C465.028412,6.916395 469.104858,5.966447 473.523254,5.428487 
	C470.609528,8.168303 469.752655,11.279986 469.906036,15.252277 
	C470.219513,23.372154 469.718018,31.527279 470.140015,39.637295 
	C470.306793,42.842960 472.040436,45.967098 473.060638,49.128357 
z"/>
<path fill="#F94683" opacity="1.000000" stroke="none" 
	d="
M473.416779,49.079872 
	C472.040436,45.967098 470.306793,42.842960 470.140015,39.637295 
	C469.718018,31.527279 470.219513,23.372154 469.906036,15.252277 
	C469.752655,11.279986 470.609528,8.168303 473.931458,5.498694 
	C477.373993,4.430132 480.750244,3.703351 484.540802,2.926052 
	C484.303375,6.010906 483.150452,9.136581 483.089569,12.283383 
	C482.864471,23.919210 483.365814,35.578106 482.854675,47.195797 
	C482.574677,53.559536 485.415436,57.120872 490.805450,59.921181 
	C488.054382,62.405048 486.486572,59.555462 484.634521,58.075878 
	C480.954315,55.135746 477.386932,52.054382 473.416779,49.079872 
z"/>
<path fill="#F65489" opacity="1.000000" stroke="none" 
	d="
M460.532318,7.921730 
	C457.170990,10.819794 458.022827,15.023318 458.012177,18.959579 
	C457.979004,31.219446 458.103485,43.480988 457.922729,55.738277 
	C457.881042,58.566101 458.776367,60.082825 461.757080,60.897697 
	C459.194366,64.063553 456.269531,67.072136 452.621826,70.085526 
	C451.266174,68.569695 450.118622,67.059967 450.086121,65.526611 
	C449.907013,57.073456 450.054749,48.613892 449.954620,40.158131 
	C449.934235,38.435204 449.332520,36.719162 448.998840,34.610382 
	C448.985504,33.441860 448.972137,32.662903 448.958771,31.883944 
	C449.744751,30.981363 450.530762,30.078785 451.925873,29.041494 
	C453.476227,24.225014 450.330444,23.485840 446.877960,23.042521 
	C446.533569,23.025873 446.269775,22.871506 446.004272,21.991230 
	C445.423187,20.577629 445.024628,19.667200 444.408844,18.940926 
	C441.023987,14.948641 441.149506,14.620332 445.862091,12.820395 
	C447.068024,12.359791 447.958801,11.073928 448.994354,10.167211 
	C452.700470,9.437181 456.406586,8.707150 460.532318,7.921730 
z"/>
<path fill="#F16991" opacity="1.000000" stroke="none" 
	d="
M417.125732,56.953423 
	C418.871735,58.010509 420.617767,59.067589 422.673065,60.356003 
	C422.988647,61.058559 422.994934,61.529781 422.843079,62.352161 
	C422.123291,65.076805 421.163666,67.435890 421.077179,69.826561 
	C420.849091,76.131294 421.099854,82.451950 420.960358,88.761856 
	C420.883881,92.221001 420.809479,95.537193 423.997192,97.840492 
	C418.231689,99.318474 414.146851,96.255760 410.105896,91.958237 
	C409.983551,78.874130 409.983551,66.575821 409.983551,53.443653 
	C413.166412,55.007759 415.146088,55.980587 417.125732,56.953423 
z"/>
<path fill="#F3638F" opacity="1.000000" stroke="none" 
	d="
M424.357788,97.911896 
	C420.809479,95.537193 420.883881,92.221001 420.960358,88.761856 
	C421.099854,82.451950 420.849091,76.131294 421.077179,69.826561 
	C421.163666,67.435890 422.123291,65.076805 423.155640,62.196335 
	C424.403442,60.086605 425.180481,58.483864 425.957520,56.881111 
	C426.420471,56.303097 426.883423,55.725086 427.948303,55.040703 
	C429.700562,54.289867 430.850891,53.645409 432.000732,53.469551 
	C432.000183,59.705833 431.945038,65.474197 432.015778,71.241013 
	C432.083344,76.743217 432.282104,82.243813 432.444214,88.567436 
	C436.305420,86.111168 438.716766,84.577202 441.128113,83.043243 
	C436.980255,89.475349 431.831757,94.808380 424.357788,97.911896 
z"/>
<path fill="#7673e6" opacity="1.000000" stroke="none" 
	d="
M327.053467,165.568909 
	C326.060211,164.318741 324.153351,162.700607 324.135864,161.062286 
	C323.928589,141.647781 323.825531,122.226830 324.198486,102.817253 
	C324.253510,99.955139 326.914429,97.143089 328.979858,94.447037 
	C329.726715,96.386841 329.978119,98.187248 329.981903,99.988174 
	C330.013672,115.070976 330.000000,130.153870 330.000000,145.236740 
	C330.000000,146.972595 330.000000,148.708450 330.000000,150.711411 
	C331.881805,150.402344 332.995331,150.219452 334.108856,150.036560 
	C331.745117,155.088226 329.381348,160.139893 327.053467,165.568909 
z"/>
<path fill="#F07094" opacity="1.000000" stroke="none" 
	d="
M417.068054,56.599800 
	C415.146088,55.980587 413.166412,55.007759 409.983551,53.443653 
	C409.983551,66.575821 409.983551,78.874130 409.970062,91.649261 
	C405.204315,91.555092 406.476440,96.613510 403.738770,98.402664 
	C402.541473,95.145927 401.229340,91.830070 401.105804,88.470512 
	C400.788940,79.853424 401.058502,71.216377 400.977997,62.588394 
	C400.929871,57.431198 400.233704,52.115982 405.992126,49.163742 
	C410.459351,50.288612 414.719299,51.735893 417.068054,56.599800 
z"/>
<path fill="#F45D8C" opacity="1.000000" stroke="none" 
	d="
M441.431152,82.911972 
	C438.716766,84.577202 436.305420,86.111168 432.444214,88.567436 
	C432.282104,82.243813 432.083344,76.743217 432.015778,71.241013 
	C431.945038,65.474197 432.000183,59.705833 432.148407,53.165966 
	C433.850830,49.890678 435.405151,47.387577 436.959473,44.884476 
	C437.422272,44.304989 437.885101,43.725502 438.946381,43.042885 
	C440.362823,42.626549 441.180786,42.313339 441.999268,42.468777 
	C441.999878,52.528679 441.948212,62.120468 442.047974,71.710686 
	C442.065887,73.432617 442.708374,75.148056 443.033264,76.724640 
	C445.993500,75.607872 448.063599,74.826904 450.133728,74.045929 
	C447.333893,76.957512 444.534058,79.869102 441.431152,82.911972 
z"/>
<path fill="#F39EB7" opacity="1.000000" stroke="none" 
	d="
M370.949951,99.878090 
	C373.729706,93.653877 376.509430,87.429672 379.748810,81.355629 
	C380.138153,83.003571 380.067841,84.501343 379.720093,86.202965 
	C376.469330,90.976067 375.562653,95.734489 375.794708,101.382828 
	C376.402802,116.182983 376.000763,131.024689 375.999390,145.849823 
	C375.999176,148.207336 375.709381,150.733185 379.119995,151.035431 
	C377.662598,152.693787 376.205200,154.352127 374.198853,155.795380 
	C372.561218,155.515152 371.472595,155.450027 370.000000,155.361923 
	C370.000000,143.653366 369.745087,132.061523 370.103943,120.488716 
	C370.292877,114.395454 367.951782,108.016724 371.642242,102.158493 
	C371.919495,101.718391 371.203979,100.652878 370.949951,99.878090 
z"/>
<path fill="#F28EAC" opacity="1.000000" stroke="none" 
	d="
M379.997559,85.999115 
	C380.067841,84.501343 380.138153,83.003571 380.078003,81.194534 
	C382.394073,75.325012 384.840607,69.766754 387.751282,64.367142 
	C388.318298,65.310089 388.804535,66.383797 388.464691,66.833923 
	C385.064117,71.338501 385.894409,76.443207 385.948669,81.543777 
	C386.097534,95.531464 385.870148,109.524185 386.130127,123.508629 
	C386.172638,125.797356 387.933563,128.054138 388.900269,130.325668 
	C387.833740,132.809006 386.767212,135.292343 385.340027,137.665253 
	C384.928101,137.396454 384.911011,137.211807 384.815552,137.087219 
	C384.724457,136.968338 384.446320,136.821960 384.429993,136.841125 
	C383.636627,137.769104 382.862793,138.713715 381.341553,140.561829 
	C381.185181,137.908066 381.014526,136.336746 381.012207,134.765167 
	C380.991333,120.612259 381.041138,106.459053 380.955292,92.306641 
	C380.942535,90.202271 380.331696,88.101532 379.997559,85.999115 
z"/>
<path fill="#F186A5" opacity="1.000000" stroke="none" 
	d="
M389.183228,130.158997 
	C387.933563,128.054138 386.172638,125.797356 386.130127,123.508629 
	C385.870148,109.524185 386.097534,95.531464 385.948669,81.543777 
	C385.894409,76.443207 385.064117,71.338501 388.464691,66.833923 
	C388.804535,66.383797 388.318298,65.310089 388.081299,64.205521 
	C388.721710,62.008160 389.496277,60.131062 390.879517,58.343750 
	C391.328003,60.191422 391.032684,61.948997 391.028656,63.707241 
	C390.991577,79.831261 390.986359,95.955437 391.022339,112.079460 
	C391.028290,114.751518 391.600494,117.156235 395.109528,117.033875 
	C393.228424,121.353363 391.347321,125.672844 389.183228,130.158997 
z"/>
<path fill="#7673e6" opacity="1.000000" stroke="none" 
	d="
M334.448090,149.873993 
	C332.995331,150.219452 331.881805,150.402344 330.000000,150.711411 
	C330.000000,148.708450 330.000000,146.972595 330.000000,145.236740 
	C330.000000,130.153870 330.013672,115.070976 329.981903,99.988174 
	C329.978119,98.187248 329.726715,96.386841 329.292389,94.292282 
	C330.326416,92.610039 331.658142,91.221718 332.994720,89.486389 
	C335.217316,89.146309 337.435028,89.153236 339.613037,89.818756 
	C337.380981,91.022537 335.924194,91.781403 335.895874,94.669205 
	C335.771057,107.391350 335.217804,120.110184 335.188782,132.831070 
	C335.185608,134.219574 337.559082,135.613510 338.830200,137.004929 
	C337.482574,141.240417 336.134949,145.475922 334.448090,149.873993 
z"/>
<path fill="#F296B1" opacity="1.000000" stroke="none" 
	d="
M379.720093,86.202965 
	C380.331696,88.101532 380.942535,90.202271 380.955292,92.306641 
	C381.041138,106.459053 380.991333,120.612259 381.012207,134.765167 
	C381.014526,136.336746 381.185181,137.908066 381.341553,140.561829 
	C382.862793,138.713715 383.636627,137.769104 384.429993,136.841125 
	C384.446320,136.821960 384.724457,136.968338 384.815552,137.087219 
	C384.911011,137.211807 384.928101,137.396454 385.011292,137.834641 
	C383.282745,142.317871 381.522369,146.521301 379.440979,150.880081 
	C375.709381,150.733185 375.999176,148.207336 375.999390,145.849823 
	C376.000763,131.024689 376.402802,116.182983 375.794708,101.382828 
	C375.562653,95.734489 376.469330,90.976067 379.720093,86.202965 
z"/>
<path fill="#F17EA0" opacity="1.000000" stroke="none" 
	d="
M395.427307,116.876465 
	C391.600494,117.156235 391.028290,114.751518 391.022339,112.079460 
	C390.986359,95.955437 390.991577,79.831261 391.028656,63.707241 
	C391.032684,61.948997 391.328003,60.191422 391.191498,58.189697 
	C392.353455,56.295341 393.812134,54.644833 395.628174,53.413971 
	C395.985565,71.286011 395.985565,88.738396 395.985565,106.210197 
	C397.596100,106.534515 398.850220,106.787064 400.104370,107.039612 
	C398.651276,110.266090 397.198151,113.492577 395.427307,116.876465 
z"/>
<path fill="#7673e6" opacity="1.000000" stroke="none" 
	d="
M338.953979,136.711151 
	C337.559082,135.613510 335.185608,134.219574 335.188782,132.831070 
	C335.217804,120.110184 335.771057,107.391350 335.895874,94.669205 
	C335.924194,91.781403 337.380981,91.022537 339.815186,90.178024 
	C342.327271,91.038033 344.597382,92.197350 346.622345,93.675446 
	C345.100464,93.811852 343.823792,93.629471 342.000000,93.368942 
	C342.000000,103.780685 342.010498,113.890022 341.994476,123.999321 
	C341.988647,127.683632 341.919647,131.367844 341.879456,135.052094 
	C340.945557,135.507187 340.011688,135.962280 338.953979,136.711151 
z"/>
<path fill="#F4A6BE" opacity="1.000000" stroke="none" 
	d="
M370.619141,100.035751 
	C371.203979,100.652878 371.919495,101.718391 371.642242,102.158493 
	C367.951782,108.016724 370.292877,114.395454 370.103943,120.488716 
	C369.745087,132.061523 370.000000,143.653366 370.000000,155.361923 
	C371.472595,155.450027 372.561218,155.515152 373.851929,155.852112 
	C371.301453,157.080399 368.548889,158.036880 365.387634,158.510498 
	C364.652618,155.262726 364.010986,152.492889 364.054352,149.733810 
	C364.247253,137.451157 364.636108,125.171577 364.954163,112.890892 
	C366.732208,108.658394 368.510284,104.425903 370.619141,100.035751 
z"/>
<path fill="#F0789A" opacity="1.000000" stroke="none" 
	d="
M400.422058,106.881905 
	C398.850220,106.787064 397.596100,106.534515 395.985565,106.210197 
	C395.985565,88.738396 395.985565,71.286011 395.974792,53.357231 
	C398.298706,49.854095 401.271912,48.349621 405.575592,49.093872 
	C400.233704,52.115982 400.929871,57.431198 400.977997,62.588394 
	C401.058502,71.216377 400.788940,79.853424 401.105804,88.470512 
	C401.229340,91.830070 402.541473,95.145927 403.572571,98.725082 
	C402.801880,101.553711 401.770813,104.138954 400.422058,106.881905 
z"/>
<path fill="#7673e6" opacity="1.000000" stroke="none" 
	d="
M341.934540,135.407623 
	C341.919647,131.367844 341.988647,127.683632 341.994476,123.999321 
	C342.010498,113.890022 342.000000,103.780685 342.000000,93.368942 
	C343.823792,93.629471 345.100464,93.811852 346.775757,93.998886 
	C349.116425,96.435791 351.058502,98.868034 352.689941,101.615204 
	C351.153259,101.667732 349.927277,101.405319 348.071838,101.008186 
	C348.071838,114.215919 347.913727,126.892647 348.246674,139.556458 
	C348.295166,141.402756 350.688019,143.187424 352.022797,145.320160 
	C352.371185,146.426666 352.692841,147.213638 352.779785,148.125092 
	C352.349518,148.539169 352.153931,148.828766 351.958313,149.118347 
	C348.635406,144.666626 345.312531,140.214890 341.934540,135.407623 
z"/>
<path fill="#F5578A" opacity="1.000000" stroke="none" 
	d="
M450.393127,73.950729 
	C448.063599,74.826904 445.993500,75.607872 443.033264,76.724640 
	C442.708374,75.148056 442.065887,73.432617 442.047974,71.710686 
	C441.948212,62.120468 441.999878,52.528679 442.001312,42.219315 
	C442.002869,41.501202 442.007721,41.002293 442.304199,40.858669 
	C444.733398,38.810009 446.866089,36.904972 448.998779,34.999939 
	C449.332520,36.719162 449.934235,38.435204 449.954620,40.158131 
	C450.054749,48.613892 449.907013,57.073456 450.086121,65.526611 
	C450.118622,67.059967 451.266174,68.569695 452.353943,70.252304 
	C452.090149,71.561363 451.371338,72.708450 450.393127,73.950729 
z"/>
<path fill="#7673e6" opacity="1.000000" stroke="none" 
	d="
M353.014496,148.000610 
	C352.692841,147.213638 352.371185,146.426666 352.320435,145.026382 
	C352.727753,134.708160 352.624359,124.990555 353.137573,115.305611 
	C353.305023,112.144569 355.078674,109.068634 356.117737,105.953781 
	C358.084381,108.401329 360.051056,110.848862 361.672974,113.663071 
	C360.552216,115.529678 359.136841,117.015877 359.104279,118.531776 
	C358.898804,128.099045 359.053894,137.673462 358.954712,147.244110 
	C358.934784,149.165833 358.333313,151.081528 357.699707,152.854858 
	C356.230591,152.161133 355.061737,151.612564 353.892914,151.063995 
	C353.892914,151.063995 353.977112,151.019821 353.973633,150.715256 
	C353.651611,149.607330 353.333069,148.803970 353.014496,148.000610 
z"/>
<path fill="#7673e6" opacity="1.000000" stroke="none" 
	d="
M356.062683,105.627861 
	C355.078674,109.068634 353.305023,112.144569 353.137573,115.305611 
	C352.624359,124.990555 352.727753,134.708160 352.293701,144.706833 
	C350.688019,143.187424 348.295166,141.402756 348.246674,139.556458 
	C347.913727,126.892647 348.071838,114.215919 348.071838,101.008186 
	C349.927277,101.405319 351.153259,101.667732 352.776184,101.967102 
	C354.117920,103.103355 355.062775,104.202652 356.062683,105.627861 
z"/>
<path fill="#7673e6" opacity="1.000000" stroke="none" 
	d="
M357.999969,153.000000 
	C358.333313,151.081528 358.934784,149.165833 358.954712,147.244110 
	C359.053894,137.673462 358.898804,128.099045 359.104279,118.531776 
	C359.136841,117.015877 360.552216,115.529678 361.755554,114.016403 
	C362.919678,113.706802 363.656464,113.410530 364.673706,113.002579 
	C364.636108,125.171577 364.247253,137.451157 364.054352,149.733810 
	C364.010986,152.492889 364.652618,155.262726 364.991058,158.441437 
	C364.515808,158.587891 364.028442,158.320526 363.207458,157.617111 
	C361.249207,155.787384 359.624573,154.393692 357.999969,153.000000 
z"/>
<path fill="#F95C8F" opacity="1.000000" stroke="none" 
	d="
M448.590942,10.097141 
	C447.958801,11.073928 447.068024,12.359791 445.862091,12.820395 
	C441.149506,14.620332 441.023987,14.948641 444.408844,18.940926 
	C445.024628,19.667200 445.423187,20.577629 445.940063,21.763212 
	C443.472839,20.084522 440.834381,18.190426 438.643982,15.872881 
	C438.251434,15.457511 439.369720,12.545378 440.381500,12.084942 
	C442.795715,10.986315 445.562866,10.663311 448.590942,10.097141 
z"/>
<path fill="#F96493" opacity="1.000000" stroke="none" 
	d="
M436.652649,45.025497 
	C435.405151,47.387577 433.850830,49.890678 432.148865,52.697365 
	C430.850891,53.645409 429.700562,54.289867 428.215149,54.946304 
	C430.701965,51.694363 433.523865,48.430439 436.652649,45.025497 
z"/>
<path fill="#F95C8F" opacity="1.000000" stroke="none" 
	d="
M448.998840,34.610378 
	C446.866089,36.904972 444.733398,38.810009 442.072144,40.735611 
	C441.348480,40.470879 441.153351,40.185585 440.958221,39.900299 
	C443.421143,37.321415 445.884033,34.742527 448.652863,32.023792 
	C448.972137,32.662903 448.985504,33.441860 448.998840,34.610378 
z"/>
<path fill="#7673e6" opacity="1.000000" stroke="none" 
	d="
M357.699707,152.854858 
	C359.624573,154.393692 361.249207,155.787384 362.927643,157.503204 
	C362.539032,157.874222 362.096619,157.923126 361.190063,157.705933 
	C360.495514,157.200378 360.214630,157.067276 359.883331,157.040543 
	C357.921448,155.279144 355.959534,153.517746 353.945282,151.410156 
	C355.061737,151.612564 356.230591,152.161133 357.699707,152.854858 
z"/>
<path fill="#F95C8F" opacity="1.000000" stroke="none" 
	d="
M447.014771,23.344330 
	C450.330444,23.485840 453.476227,24.225014 452.209137,28.933596 
	C450.306030,27.188984 448.728790,25.417562 447.014771,23.344330 
z"/>
<path fill="#7673e6" opacity="1.000000" stroke="none" 
	d="
M425.672424,57.003334 
	C425.180481,58.483864 424.403442,60.086605 423.313782,61.845173 
	C422.994934,61.529781 422.988647,61.058559 422.971130,60.234074 
	C423.769073,58.962387 424.578186,58.043968 425.672424,57.003334 
z"/>
<path fill="#7673e6" opacity="1.000000" stroke="none" 
	d="
M440.650604,40.021652 
	C441.153351,40.185585 441.348480,40.470879 441.775635,40.879234 
	C442.007721,41.002293 442.002869,41.501202 442.000824,41.750664 
	C441.180786,42.313339 440.362823,42.626549 439.214142,42.949554 
	C439.369965,42.020573 439.856476,41.081791 440.650604,40.021652 
z"/>
<path fill="#7673e6" opacity="1.000000" stroke="none" 
	d="
M352.779785,148.125092 
	C353.333069,148.803970 353.651611,149.607330 353.951935,150.757538 
	C353.339264,150.625641 352.744843,150.146896 352.054382,149.393250 
	C352.153931,148.828766 352.349518,148.539169 352.779785,148.125092 
z"/>
<path fill="#7673e6" opacity="1.000000" stroke="none" 
	d="
M359.971588,157.297821 
	C360.214630,157.067276 360.495514,157.200378 360.861816,157.634521 
	C360.685028,157.737854 360.372437,157.646484 359.971588,157.297821 
z"/>
<path fill="#7673e6" opacity="1.000000" stroke="none" 
	d="
M259.885010,158.720581 
	C259.575897,158.894836 259.364319,158.738098 259.109253,158.339188 
	C259.323700,158.258881 259.629303,158.356400 259.885010,158.720581 
z"/>
<path fill="#7673e6" opacity="1.000000" stroke="none" 
	d="
M327.305664,167.018555 
	C327.031525,166.906189 327.022614,166.708679 327.033722,166.214722 
	C327.226135,166.256638 327.398499,166.595016 327.305664,167.018555 
z"/>
<path fill="transparent" opacity="1.000000" stroke="none" 
	d="
M158.001251,234.167023 
	C158.941223,232.788208 159.874161,231.124130 160.821899,231.115677 
	C178.279984,230.959595 195.742645,230.812012 213.198288,231.071243 
	C223.984573,231.231430 228.521378,233.905853 230.237335,241.918320 
	C232.409775,252.062225 231.631577,262.101837 222.640717,265.088959 
	C221.443451,265.486755 220.185593,265.957184 218.954620,265.960510 
	C198.848587,266.014587 178.742371,265.998840 158.001099,265.998840 
	C158.001099,255.452820 158.001099,245.052628 158.001251,234.167023 
z"/>
</svg>